Fly_normalized_Motion_pl06
version=1
nRows=12
nColumns=43
inDegrees=yes
endheader
time		pelvis_tilt		pelvis_list		pelvis_rotation		pelvis_tx		pelvis_ty		pelvis_tz		hip_flexion_r		hip_adduction_r		hip_rotation_r		knee_angle_r		ankle_angle_r		subtalar_angle_r		mtp_angle_r		hip_flexion_l		hip_adduction_l		hip_rotation_l		knee_angle_l		ankle_angle_l		subtalar_angle_l		mtp_angle_l		lumbar_extension		lumbar_bending		lumbar_rotation		neck_flexion		neck_lateral_bending		neck_rotation		arm_flex_r		arm_add_r		arm_rot_r		elbow_flex_r		pro_sup_r		wrist_flex_r		wrist_dev_r		hand_finger_flex_r		arm_flex_l		arm_add_l		arm_rot_l		elbow_flex_l		pro_sup_l		wrist_flex_l		wrist_dev_l		hand_finger_flex_l		
0.900000		-1.006455		20.792970		89.812732		-0.008144		1.543544		0.912082		17.077981		-6.420493		-9.930514		-32.652337		-30.646292		-5.042592		11.696817		12.025407		0.006483		-11.583396		-25.777812		-30.442573		-10.026431		24.126133		-68.151114		-2.944819		-8.900934		-11.905768		-4.287195		5.740876		-5.705418		-43.556529		15.708469		47.452603		100.394362		-7.390343		7.892359		55.201948		1.631139		-38.477915		1.959220		59.368765		124.251816		-14.498672		10.917303		82.613447		
0.904394		-1.090099		21.076111		89.840978		-0.007312		1.529777		0.900725		15.887888		-6.394301		-10.377301		-30.884171		-30.949086		-4.634384		11.734069		11.231353		-0.058101		-11.829852		-24.653640		-30.401812		-9.967355		24.556361		-67.407946		-3.190232		-9.332422		-13.745099		-4.281332		6.238725		-9.481875		-43.262380		14.070259		46.889981		100.024291		-7.106044		7.769505		55.266893		-2.419292		-38.191801		0.293742		59.161738		123.925455		-15.072460		10.673343		82.860916		
0.908788		-1.163912		21.489798		89.871702		-0.006484		1.516022		0.889396		14.534181		-6.356236		-10.841352		-29.118736		-31.153785		-4.099011		11.857138		10.247629		-0.124226		-12.061233		-23.435282		-30.403265		-9.870330		25.091524		-66.832280		-3.423287		-9.748625		-15.404536		-4.309741		6.755663		-13.284231		-42.999307		12.403693		46.536656		99.830846		-6.759178		7.759226		55.416565		-6.543847		-37.882266		-1.327197		59.196196		123.653930		-15.794641		10.266296		83.100977		
0.913182		-1.241994		21.839653		89.883540		-0.005542		1.501982		0.878036		13.247761		-6.306678		-11.306966		-27.376292		-31.282791		-3.545160		12.003538		9.319352		-0.191044		-12.280065		-22.197679		-30.380581		-9.852672		25.594604		-66.187068		-3.696672		-10.150173		-17.036930		-4.284899		7.248944		-17.061354		-42.687016		10.760184		46.250667		99.486156		-6.447449		7.759223		55.637488		-10.592949		-37.480836		-2.867488		59.190438		123.275902		-16.572920		9.886110		83.297849		
0.917576		-1.313162		22.151940		89.869968		-0.004632		1.487678		0.866624		12.025475		-6.250816		-11.781303		-25.697102		-31.367363		-3.024986		12.153977		8.452958		-0.262081		-12.492562		-21.023408		-30.356364		-9.898512		26.073240		-65.473199		-3.999571		-10.477940		-18.760176		-4.264482		7.681083		-20.841869		-42.375098		9.215367		45.997807		99.059000		-6.119441		7.802279		55.912603		-14.522686		-36.994790		-4.241646		59.219592		122.839663		-17.382990		9.516303		83.503527		
0.921970		-1.356204		22.465902		89.836084		-0.003594		1.473199		0.855133		10.796868		-6.147679		-12.285841		-24.053035		-31.374816		-2.525517		12.309046		7.578727		-0.376414		-12.741539		-19.847046		-30.281150		-10.001335		26.543110		-64.774560		-4.310612		-10.781153		-20.364451		-4.214497		8.066005		-24.611679		-41.991383		7.576739		45.879950		98.475541		-5.763395		7.890168		56.264159		-18.382220		-36.414860		-5.540957		59.195822		122.332696		-18.320067		9.122715		83.744354		
0.926364		-1.373156		22.648552		89.772956		-0.002479		1.458306		0.843612		9.771704		-6.006276		-12.733407		-22.508171		-31.407644		-2.166142		12.403172		6.901296		-0.538423		-12.978729		-18.793383		-30.209211		-10.128391		26.867134		-63.906245		-4.650122		-10.990535		-22.149589		-4.166901		8.324292		-28.346905		-41.626077		6.187355		45.774188		97.803579		-5.428664		7.944302		56.609905		-22.100696		-35.851778		-6.557644		59.202208		121.859256		-19.113486		8.832317		84.005137		
0.930758		-1.366321		22.897713		89.629699		-0.001464		1.443423		0.832060		8.651942		-5.847706		-13.280749		-20.920370		-31.373070		-1.820766		12.497991		6.133289		-0.709564		-13.282067		-17.746429		-30.039975		-10.305391		27.143804		-63.160115		-5.007448		-11.075836		-23.638136		-4.047380		8.610881		-32.177928		-41.134880		4.412488		45.772635		96.877033		-5.073077		8.068627		57.036829		-25.641536		-35.051448		-7.671849		59.169378		121.302311		-20.109891		8.472687		84.261452		
0.935152		-1.317953		23.137301		89.490964		-0.000339		1.428425		0.820472		7.558383		-5.632429		-13.830690		-19.378855		-31.402959		-1.513674		12.609091		5.381141		-0.932017		-13.624398		-16.723081		-29.906589		-10.484327		27.390932		-62.382315		-5.347923		-11.075347		-25.268459		-3.906709		8.736765		-35.980080		-40.593038		2.722227		45.870907		96.058645		-4.728562		8.307816		57.430289		-29.038806		-34.359283		-8.427709		59.119880		120.790518		-21.097951		8.086761		84.577509		
0.939545		-1.256357		23.124264		89.356613		0.000819		1.412879		0.808931		6.824120		-5.386870		-14.232015		-17.987901		-31.477478		-1.336359		12.638362		4.961251		-1.173454		-13.931599		-15.798447		-29.819040		-10.720049		27.438851		-61.321182		-5.707312		-11.093198		-27.122869		-3.722707		8.786157		-39.532411		-40.099737		1.480957		45.901777		95.261757		-4.502768		8.340375		57.689673		-32.426643		-33.717360		-9.020184		59.202563		120.418458		-21.629233		7.889932		84.758965		
0.943939		-1.107275		23.553051		89.110744		0.002045		1.397989		0.797369		5.504535		-5.072840		-14.884352		-16.421726		-31.564215		-0.905755		12.884423		3.957835		-1.477367		-14.406026		-14.756859		-29.682323		-10.991966		27.571322		-60.774820		-6.017775		-10.795750		-28.565425		-3.583244		8.750501		-43.423065		-39.241062		-0.721737		46.295558		94.344174		-4.254414		9.006024		58.018700		-35.432004		-32.999730		-9.453055		59.122708		119.855714		-22.683902		7.254408		84.952041		
0.948333		-0.973732		23.726691		88.871078		0.003171		1.382592		0.785814		4.520528		-4.772380		-15.491342		-14.978676		-31.655434		-0.585176		13.134777		3.273961		-1.762974		-14.847234		-13.790248		-29.562589		-11.240341		27.672440		-59.959636		-6.346987		-10.539802		-30.144930		-3.336929		8.743324		-46.986852		-38.403301		-2.503798		46.518550		93.603315		-4.048548		9.407349		58.255540		-38.344842		-32.202005		-9.910712		59.066063		119.312632		-23.459052		6.815002		85.135954		
